# xmcd
# Track frame offsets:
# 150
# 14746
# 28905
# 43026
# 59101
# 76159
# 91399
# 105368
# 119821
# 134038
# 150166
# 167232
#
# Disc length: 2443 seconds
# Revision: 0
# Processed by: cddbd v1.5.2PL0 Copyright (c) Steve Scherf et al.
# Submitted via: VisiTrax 2.11.1.266 - For more info visit www.synapsa.com
#
DISCID=a409890c
DTITLE=Rosanne Cash - The List
DYEAR=2009
DGENRE=Country
TTITLE0=Miss The Mississippi And You
TTITLE1=Motherless Children
TTITLE2=Sea Of Heartbreak
TTITLE3=Take These Chains ZFrom My Heart
TTITLE4=I'm Movin' On
TTITLE5=Heartaches By The Number
TTITLE6=500 Miles
TTITLE7=Long Black Veil
TTITLE8=She's Got You
TTITLE9=Girl From The North Country
TTITLE10=Silver Wings
TTITLE11=Bury Me Under The Weeping Willow
EXTD=
EXTT0=
EXTT1=
EXTT2=
EXTT3=
EXTT4=
EXTT5=
EXTT6=
EXTT7=
EXTT8=
EXTT9=
EXTT10=
EXTT11=
PLAYORDER=
